<svg id="svg" version="1.1" xmlns="http://www.w3.org/2000/svg" xmlns:xlink="http://www.w3.org/1999/xlink" width="400" height="332.1115537848606" viewBox="0, 0, 400,332.1115537848606"><g id="svgg"><path id="path0" d="M18.167 0.080 C 18.168 0.124,19.397 2.598,20.900 5.578 C 22.403 8.558,23.629 11.028,23.625 11.068 C 23.621 11.108,26.693 17.397,30.452 25.045 C 34.212 32.693,37.216 39.067,37.128 39.209 C 37.040 39.351,37.107 39.516,37.276 39.574 C 37.782 39.750,47.208 59.285,46.972 59.667 C 46.851 59.861,46.898 59.930,47.076 59.820 C 47.477 59.572,52.037 69.087,51.745 69.560 C 51.629 69.747,51.674 69.814,51.843 69.709 C 52.013 69.604,62.647 91.060,75.474 117.389 L 98.797 165.259 105.733 165.458 C 109.548 165.567,118.478 165.674,125.578 165.697 L 138.486 165.737 172.749 111.184 C 191.594 81.180,207.057 56.447,207.112 56.222 C 207.205 55.839,202.325 45.761,186.335 13.307 L 179.778 0.000 98.973 0.000 C 54.530 0.000,18.167 0.036,18.167 0.080 " stroke="none" fill="#1c8bfb" fill-rule="evenodd"></path><path id="path1" d="M239.704 4.232 C 238.578 6.024,237.201 8.207,236.645 9.084 C 234.277 12.820,232.488 15.668,232.191 16.175 C 232.016 16.475,231.048 17.993,230.040 19.548 C 229.032 21.104,228.207 22.448,228.207 22.534 C 228.207 22.620,227.884 23.142,227.490 23.695 C 227.096 24.247,226.558 25.060,226.295 25.502 C 225.283 27.201,223.784 29.600,220.544 34.705 C 218.696 37.617,215.981 41.936,214.509 44.303 C 213.038 46.669,210.872 50.116,209.696 51.961 C 208.520 53.807,207.345 55.815,207.085 56.423 C 206.825 57.032,191.392 81.769,172.790 111.394 L 138.967 165.259 143.986 165.463 C 146.746 165.575,180.629 165.844,219.283 166.061 C 257.936 166.277,292.178 166.544,295.375 166.654 L 301.188 166.853 312.923 190.916 C 319.378 204.151,334.248 234.665,345.969 258.724 C 357.690 282.784,367.326 302.422,367.384 302.364 C 367.441 302.307,363.528 294.096,358.689 284.118 C 353.850 274.140,349.062 264.255,348.050 262.151 C 344.735 255.259,341.521 248.608,336.422 238.088 C 333.660 232.390,325.090 214.677,317.376 198.725 C 309.662 182.773,302.883 168.789,302.311 167.649 L 301.271 165.578 303.574 161.753 C 304.840 159.649,318.426 137.060,333.764 111.554 C 349.103 86.048,370.208 50.957,380.666 33.575 C 391.123 16.192,399.767 1.742,399.874 1.463 C 400.051 1.001,393.136 0.957,320.911 0.965 L 241.753 0.974 239.704 4.232 M369.116 306.135 C 369.116 306.311,369.819 307.817,370.677 309.482 C 371.536 311.147,372.239 312.367,372.239 312.191 C 372.239 312.016,371.536 310.510,370.677 308.845 C 369.819 307.179,369.116 305.960,369.116 306.135 " stroke="none" fill="#1bd39b" fill-rule="evenodd"></path><path id="path2" d="M138.964 165.690 C 138.964 165.856,150.887 190.281,165.459 219.968 C 180.032 249.655,192.230 274.661,192.567 275.538 C 192.903 276.414,195.036 280.878,197.306 285.456 C 199.577 290.035,201.434 293.943,201.434 294.141 C 201.434 294.340,201.586 294.502,201.772 294.502 C 201.957 294.502,202.021 294.645,201.912 294.821 C 201.804 294.996,201.891 295.139,202.106 295.139 C 202.321 295.139,202.417 295.219,202.320 295.316 C 202.222 295.414,203.848 298.880,205.932 303.019 C 208.016 307.158,209.721 310.735,209.721 310.969 C 209.721 311.203,209.865 311.394,210.040 311.394 C 210.215 311.394,210.359 311.579,210.359 311.804 C 210.359 312.029,212.587 316.690,215.310 322.162 L 220.262 332.112 301.074 332.112 C 345.520 332.112,381.837 332.004,381.778 331.873 C 381.719 331.741,379.251 326.757,376.294 320.797 C 369.530 307.162,367.454 302.790,367.741 302.784 C 367.866 302.781,367.793 302.668,367.579 302.532 C 366.952 302.133,348.001 262.964,348.244 262.570 C 348.366 262.373,348.324 262.300,348.151 262.406 C 347.721 262.672,343.445 253.872,343.758 253.365 C 343.903 253.131,343.872 253.050,343.683 253.167 C 343.500 253.280,335.341 236.901,324.615 214.889 C 314.304 193.728,304.798 174.243,303.492 171.589 L 301.118 166.764 292.153 166.573 C 287.222 166.469,254.932 166.238,220.398 166.062 C 185.865 165.885,153.414 165.662,148.287 165.565 C 142.516 165.456,138.964 165.503,138.964 165.690 " stroke="none" fill="#5bfbd3" fill-rule="evenodd"></path><path id="path3" d="M27.443 19.283 C 27.443 19.458,28.145 20.964,29.004 22.629 C 29.863 24.295,30.565 25.514,30.565 25.339 C 30.565 25.163,29.863 23.657,29.004 21.992 C 28.145 20.327,27.443 19.108,27.443 19.283 M32.225 29.163 C 32.225 29.339,33.357 31.705,34.741 34.422 C 36.125 37.139,37.257 39.219,37.257 39.044 C 37.257 38.869,36.125 36.502,34.741 33.785 C 33.357 31.068,32.225 28.988,32.225 29.163 M37.306 39.555 C 37.298 39.661,39.029 43.318,41.153 47.682 C 45.016 55.619,47.593 60.943,51.630 69.323 C 52.812 71.777,58.155 82.821,63.504 93.865 C 77.758 123.295,82.307 132.698,85.481 139.283 C 90.515 149.726,94.439 157.823,96.594 162.215 L 98.699 166.502 96.894 169.546 C 94.726 173.204,12.969 309.166,5.555 321.445 C 2.693 326.184,0.257 330.308,0.142 330.608 C -0.056 331.124,4.431 331.155,79.089 331.151 L 158.247 331.147 163.187 323.301 C 165.904 318.985,168.199 315.294,168.287 315.098 C 168.375 314.902,168.720 314.311,169.055 313.785 C 169.692 312.784,170.153 312.050,172.463 308.356 C 173.234 307.123,174.042 305.832,174.258 305.487 C 174.474 305.143,175.035 304.215,175.504 303.426 C 176.351 302.000,177.740 299.780,180.839 294.900 C 182.115 292.891,187.270 284.551,188.177 283.028 C 188.647 282.239,189.810 280.375,190.760 278.884 C 191.710 277.394,192.492 276.011,192.499 275.811 C 192.505 275.610,184.746 259.618,175.256 240.273 C 165.766 220.928,153.675 196.279,148.386 185.498 L 138.771 165.896 119.379 165.673 C 108.714 165.551,99.719 165.407,99.390 165.355 C 98.940 165.282,91.454 150.199,68.894 103.904 C 39.393 43.368,37.335 39.175,37.306 39.555 " stroke="none" fill="#046ccc" fill-rule="evenodd"></path><path id="path4" d="" stroke="none" fill="#1caacb" fill-rule="evenodd"></path></g></svg>